<svg width="70" height="59" viewBox="0 0 70 59" fill="none" xmlns="http://www.w3.org/2000/svg">
<path d="M36.1243 12.1282C36.1878 10.1459 37.076 8.41714 38.612 6.97876C39.2498 6.38139 39.8442 5.73729 40.4653 5.11989C41.1666 4.42239 41.5305 3.58139 41.5673 2.59355C41.6073 1.46221 42.3954 0.677942 43.4439 0.704641C44.4557 0.731339 45.2171 1.56233 45.1937 2.66364C45.1503 4.57925 44.4791 6.24122 43.12 7.60951C42.3687 8.36374 41.624 9.12465 40.8694 9.87554C40.1681 10.573 39.7941 11.4074 39.7507 12.3985C39.6973 13.5933 38.946 14.3442 37.8507 14.3041C36.8089 14.2674 36.1176 13.4531 36.1243 12.1349V12.1282Z" fill="white"/>
<path d="M47.0239 12.1848C47.1141 10.3293 47.7819 8.72072 49.1043 7.39581C49.8456 6.65493 50.5602 5.88735 51.3115 5.15982C52.0695 4.42562 52.4235 3.54791 52.4702 2.5C52.5136 1.50548 53.2249 0.771274 54.1165 0.701191C55.185 0.617758 56.1067 1.43206 56.0966 2.53337C56.0833 4.40559 55.4755 6.06757 54.1699 7.4392C53.3518 8.29689 52.5103 9.12787 51.6788 9.97555C51.041 10.6263 50.6904 11.4072 50.657 12.3217C50.6069 13.5865 49.8556 14.3507 48.7136 14.294C47.655 14.244 46.9838 13.403 47.0239 12.1848Z" fill="white"/>
<path d="M58.7844 19.5203V20.3212C58.7844 30.6869 58.7844 41.0492 58.7844 51.4148C58.7844 55.4997 55.8592 58.7836 51.8087 58.8904C46.536 59.0272 41.2534 59.0239 35.9774 58.877C32.1673 58.7702 29.172 55.5865 29.1553 51.7753C29.1052 41.156 29.1386 30.5334 29.1386 19.9141C29.1386 19.8006 29.1586 19.6871 29.1787 19.5203H58.7844Z" fill="white"/>
<path d="M25.6559 45.965H10.5224C10.5124 44.1228 10.8564 42.4141 11.5543 40.8088C13.9652 35.2689 19.9291 32.806 25.0081 35.1988C25.4889 35.4258 25.6726 35.6961 25.6659 36.2968C25.6358 39.4839 25.6525 42.6744 25.6525 45.965H25.6559Z" fill="white"/>
<path d="M0.511353 49.0988H25.726V53.9712C25.6692 53.9712 25.4522 53.9946 25.2351 53.9946C19.5283 53.9946 13.8249 54.0046 8.11815 53.9946C4.61862 53.9879 1.81032 52.2458 0.578137 49.3624C0.551423 49.3023 0.544745 49.2322 0.511353 49.1021L0.511353 49.0988Z" fill="white"/>
<path d="M62.1903 45.6581V24.1492C63.7163 24.1492 65.229 24.0624 66.7116 24.1725C68.4514 24.3027 69.717 25.5075 69.7236 26.8657C69.7403 29.7191 69.7303 32.5759 69.7303 35.4292C69.7303 37.8755 69.737 40.3251 69.7303 42.7713C69.7236 44.5234 68.1542 45.6381 65.6898 45.6547C64.5445 45.6614 63.3991 45.6547 62.1903 45.6547V45.6581Z" fill="white"/>
</svg>
