<svg width="49" height="50" viewBox="0 0 49 50" fill="none" xmlns="http://www.w3.org/2000/svg">
<path d="M45.5007 0.895774C46.0054 1.38756 46.2888 2.05449 46.2888 2.74988C46.2888 3.44527 46.0054 4.11219 45.5007 4.60398L36.4163 13.4527H28.8024L41.6937 0.895774C42.1985 0.404125 42.8833 0.127942 43.597 0.127942C44.3111 0.127942 44.9959 0.404125 45.5007 0.895774ZM22.9544 13.4527L32.0388 4.60398C32.296 4.36207 32.5013 4.07268 32.6424 3.75274C32.7835 3.43278 32.8576 3.08865 32.8607 2.74044C32.8637 2.39222 32.7958 2.04689 32.6603 1.72461C32.5251 1.40231 32.325 1.1095 32.0722 0.863268C31.8196 0.617035 31.5189 0.4223 31.188 0.290443C30.857 0.158578 30.5026 0.0922312 30.1451 0.0952572C29.7876 0.0982832 29.4344 0.170625 29.1059 0.308064C28.7774 0.445511 28.4804 0.645293 28.2319 0.895774L15.3406 13.4527H22.9544ZM11.5401 15.8624H3.37882C2.72277 15.8625 2.08926 16.0961 1.59745 16.5191C1.10564 16.9421 0.789504 17.5255 0.708 18.1597C0.0531841 23.2203 1.09916 28.3514 3.68909 32.7845C6.16727 37.0266 9.93161 40.4111 14.4582 42.4794C21.4534 45.1563 28.1013 45.1703 35.4243 42.3014C39.7811 40.2197 43.4041 36.907 45.8125 32.7845C48.4024 28.3514 49.4484 23.2203 48.7933 18.1597C48.7121 17.5255 48.3956 16.9421 47.9038 16.5191C47.412 16.0961 46.7788 15.8625 46.1224 15.8624H36.6102V15.9162H11.5401V15.8624ZM14.4681 45.1153C21.303 47.5229 27.9346 47.5675 35.0258 45.0849L35.4395 46.6977C35.5383 47.0842 35.5457 47.4876 35.4608 47.8773C35.3756 48.2669 35.2005 48.6326 34.9489 48.9466C34.6973 49.2605 34.3753 49.5145 34.0079 49.6892C33.6402 49.8639 33.2367 49.9547 32.8279 49.9548H16.6736C16.2646 49.9547 15.8611 49.8639 15.4937 49.6892C15.126 49.5145 14.8043 49.2605 14.5527 48.9466C14.3007 48.6326 14.1257 48.2669 14.0408 47.8773C13.9559 47.4876 13.963 47.0842 14.0621 46.6977L14.4681 45.1153Z" fill="white"/>
</svg>
