<svg width="58" height="47" viewBox="0 0 58 47" fill="none" xmlns="http://www.w3.org/2000/svg">
<path d="M52.6026 39.5443C38.3842 31.9434 24.5152 23.3469 10.2954 15.3379C9.7819 15.0462 9.76366 14.6816 10.1074 14.2679C10.8425 13.3381 11.5664 12.435 12.2903 11.5557C12.4867 11.3131 12.7294 11.0579 13.045 11.0046C13.5781 10.9219 14.1407 11.3552 14.6093 11.602C23.3437 16.6449 32.0782 21.6795 40.8098 26.7098C40.9249 26.7785 41.0792 26.864 41.2321 26.9468C41.552 27.1193 41.9504 27.0267 42.1608 26.7322L42.6841 26.0016C42.9142 25.6804 42.8188 25.2331 42.4779 25.0339C41.8213 24.6511 40.8155 24.0607 40.2389 23.7031C31.9716 18.914 23.6734 14.1641 15.4145 9.36102C15.1606 9.19134 15.0372 9.00061 15.1185 8.78605C15.1718 8.63319 15.3191 8.47052 15.4931 8.30924C16.8834 7.01906 17.3562 6.93492 19.0298 6.05984C25.4523 2.6661 32.2143 2.05466 39.0899 4.37839C39.5192 4.53265 39.9162 4.71917 40.1842 5.08519C40.3834 5.35444 40.5124 5.6812 40.6555 5.98691C41.0273 6.82273 41.6207 7.49306 42.3572 7.93621C43.1471 8.41442 44.087 8.62618 45.0564 8.51539C45.5713 8.4593 46.1184 8.35412 46.5954 8.61075C46.601 8.61356 46.6066 8.61776 46.6122 8.62197C55.6104 15.5315 58.2942 28.645 53.3069 38.6678C53.154 38.9847 52.9435 39.4545 52.6195 39.5387L52.5998 39.5429L52.6026 39.5443ZM51.9797 28.99C51.8437 23.4366 50.2682 17.8117 46.2882 13.7589C46.023 13.4784 44.2483 13.6929 43.9257 13.9608C43.7096 14.1543 43.8864 14.5386 44.094 14.777C46.514 17.2409 48.1961 20.1859 48.927 23.5292C49.4938 25.9497 49.4952 28.4571 49.8473 30.9043C49.9511 31.482 51.5561 31.1833 51.8072 30.5831C52.005 30.0867 51.9601 29.5313 51.9797 29.0153V28.9886V28.99Z" fill="white"/>
<path d="M44.5045 40.8433H13.7698C13.8497 38.8141 14.2271 36.9307 15.0282 35.1497C17.0357 30.6817 20.6734 28.2795 25.2946 27.1758C25.599 27.1029 26.0171 27.2796 26.3173 27.4507C30.5948 29.8866 34.8624 32.3393 39.1286 34.7921C40.6044 35.6405 42.0859 36.4834 43.5365 37.3739C43.8087 37.5407 44.0598 37.904 44.1257 38.2167C44.3067 39.0763 44.3839 39.9584 44.5031 40.8419L44.5045 40.8433Z" fill="white"/>
<path d="M29.0786 46.7431C20.4549 46.7431 11.8299 46.7165 3.20628 46.7698C1.78514 46.7782 0.577247 45.5651 0.566023 44.3409C0.553397 42.9708 1.67572 41.9176 3.17682 41.9176C20.5181 41.9092 37.8593 41.9008 55.202 41.8951C56.5179 41.8951 57.6935 43.0577 57.6781 44.3367C57.6641 45.6128 56.487 46.7431 55.1627 46.7431C46.4689 46.7445 37.7737 46.7431 29.08 46.7431H29.0786Z" fill="white"/>
<path d="M45.134 6.95296C43.3172 7.22081 41.7417 5.30938 41.7628 3.61671C41.7852 1.84973 43.3635 0.217365 45.1283 0.245412C46.7192 0.270655 48.5528 1.56364 48.4925 3.64757C48.4364 5.61509 47.1359 6.95296 45.134 6.95436V6.95296Z" fill="white"/>
</svg>
