<svg width="64" height="40" viewBox="0 0 64 40" fill="none" xmlns="http://www.w3.org/2000/svg">
<g clip-path="url(#clip0_492_1666)">
<path d="M45.8605 15.8908C38.6472 9.69668 28.229 9.11403 20.3994 14.5829C12.7548 19.9218 8.33698 30.307 9.71492 39.9895C9.76555 40.3396 10.0385 40.5921 10.3533 40.5821C11.9029 40.5346 13.4988 40.4771 15.0924 40.4571C16.193 40.4446 17.2892 40.4571 18.3898 40.4671C18.3986 40.4671 18.403 40.4646 18.4074 40.4596C19.1734 40.2695 19.9306 40.4446 20.701 40.4596C21.0906 40.4671 21.4758 40.4896 21.8654 40.5221C22.2308 40.5496 22.6116 40.5921 22.9748 40.5371C23.0211 40.5296 23.0651 40.5296 23.1091 40.5371C23.3468 40.4746 23.6286 40.4946 23.8883 40.4946C29.7897 40.5221 35.6932 40.5471 41.5968 40.5846C45.7812 40.6121 49.9657 40.6521 54.1303 40.6847C54.4407 40.6847 54.7026 40.4346 54.7577 40.0895C55.9551 32.475 53.3203 22.2949 45.8605 15.8883V15.8908ZM20.2696 31.5898C19.629 32.0399 18.7838 31.6998 18.3127 31.0847C17.2209 29.7243 17.1813 26.1134 18.4052 24.6255C19.8381 23.2252 20.8133 25.6933 20.9189 27.1312C21.0686 28.5115 21.368 30.7246 20.3136 31.5598L20.2696 31.5898ZM37.7007 31.3097C35.4137 33.9554 31.6937 34.378 28.6297 32.7126C27.7734 32.2325 26.8533 31.4323 26.5716 30.402C26.2678 29.2417 27.0448 28.5015 28.0926 28.5115C29.2636 28.5065 30.4698 29.1742 31.6475 29.2842C33.4238 29.5693 35.1121 28.394 36.8533 28.349C38.5438 28.324 38.7859 29.9694 37.7447 31.2572L37.7029 31.3097H37.7007ZM44.9184 31.8974C42.616 31.1872 42.9395 23.5252 45.8781 24.9481C46.5649 25.4107 46.8576 26.8561 46.9347 27.9739C47.2032 29.6718 46.8048 32.4875 44.9734 31.9174L44.9206 31.8974H44.9184Z" fill="white"/>
<path d="M63.1874 37.8844C62.7988 38.7224 62.2436 39.1729 61.383 39.1729C60.2389 39.1729 59.0947 39.1932 57.8079 39.2067C57.8713 38.0308 57.9308 36.9248 58.0081 35.4921C58.8806 35.5642 59.7194 35.7309 60.5403 35.6543C60.9071 35.6205 61.2363 35.1024 61.5813 34.8028C61.9541 31.7482 60.574 31.8316 60.1853 31.7865C59.3684 31.6897 58.5257 31.8699 57.8931 31.9194C57.2546 28.7207 56.9869 27.9277 56.3822 24.8912C57.0444 24.5736 57.9169 24.2672 58.6724 23.7491C59.0095 23.5171 59.6321 22.4448 58.9738 21.4154C58.5395 21.296 58.0597 20.9806 57.6829 21.0932C56.8481 21.341 56.0629 21.8028 55.3233 22.1475C53.7767 19.6898 52.6127 18.2684 50.9828 15.6779C51.4864 15.117 52.115 14.4074 52.7535 13.7046C53.2076 13.2045 53.279 12.8193 52.9042 12.1119C52.119 10.6297 51.08 11.1951 50.7409 11.4767C50.0508 12.0534 49.4877 12.817 48.9127 13.459C46.6224 11.8214 45.2087 11.1208 42.8708 9.45157C43.1762 8.62485 43.6124 7.6855 43.8524 6.68758C43.9594 6.23705 43.8167 5.42385 43.5391 5.2121C42.1015 4.11281 41.3539 4.65344 41.118 5.30896C40.7809 6.24381 40.424 7.1719 40.1008 8.03916C37.4239 7.48051 36.8826 7.57061 33.9776 6.9624C34.0292 6.25958 34.1184 5.38105 34.1501 4.50026C34.1779 3.75464 33.3788 2.84908 32.4429 2.80853C31.509 2.84908 30.5254 3.83123 30.5532 4.57685C30.5869 5.45764 30.6761 6.33617 30.7277 7.03899C27.8208 7.6472 27.4639 7.48051 24.787 8.03916C24.4618 7.1719 24.1069 6.24381 23.7678 5.30896C23.5318 4.65344 22.7863 4.11281 21.3487 5.2121C21.0711 5.42385 20.9263 6.23705 21.0354 6.68758C21.2733 7.6855 21.7116 8.62485 22.0149 9.45157C19.6791 11.1208 18.2653 11.8214 15.9731 13.459C15.4001 12.817 14.8369 12.0534 14.1449 11.4767C13.8058 11.1951 12.7688 10.6297 11.9816 12.1119C11.6068 12.8193 11.6782 13.2045 12.1343 13.7046C12.7708 14.4074 13.4013 15.117 13.903 15.6779C12.2731 18.2684 11.1111 19.6898 9.56246 22.1475C8.82285 21.8028 8.03961 21.341 7.20283 21.0932C6.82609 20.9806 6.34623 21.296 5.91396 21.4154C5.25367 22.4448 5.87629 23.5171 6.21536 23.7491C6.96885 24.2672 7.84132 24.5736 8.50558 24.8912C7.89882 27.9277 7.63114 28.7207 6.99463 31.9194C6.36209 31.8699 5.51739 31.6897 4.70044 31.7865C4.3118 31.8316 2.93172 31.7482 3.3045 34.8028C3.6515 35.1024 3.98066 35.6205 4.34551 35.6543C5.16642 35.7309 6.00518 35.5642 6.87963 35.4921C6.95696 36.9248 7.01644 38.0308 7.0799 39.2067C5.79103 39.1932 4.6469 39.1729 3.50278 39.1729C2.6442 39.1729 2.08899 38.7224 1.70035 37.8844C0.720807 35.7692 0.643475 33.6157 1.75389 31.5996C2.97336 29.3852 3.31441 27.0898 2.97137 24.5668C2.6323 22.0641 3.53054 20.075 5.40635 18.7032C7.05412 17.498 8.13479 15.9279 8.57895 13.8014C9.18769 10.882 10.8256 9.11368 13.4707 8.42211C15.2375 7.96032 16.6969 6.92185 17.7517 5.2594C19.2349 2.92567 21.2376 1.94577 23.7956 2.39855C25.717 2.7387 27.5273 2.39629 29.1949 1.29025C30.2855 0.564896 31.3662 0.213484 32.4429 0.206726C33.5196 0.213484 34.6003 0.564896 35.6908 1.29025C37.3584 2.39629 39.1708 2.7387 41.0902 2.39855C43.6481 1.94577 45.6508 2.92567 47.134 5.2594C48.1909 6.92185 49.6503 7.96032 51.4151 8.42211C54.0602 9.11368 55.6981 10.882 56.3088 13.8014C56.753 15.9279 57.8336 17.498 59.4814 18.7032C61.3572 20.075 62.2535 22.0641 61.9144 24.5668C61.5714 27.0898 61.9124 29.3852 63.1339 31.5996C64.2443 33.6157 64.165 35.7692 63.1874 37.8844Z" fill="white"/>
</g>
<defs>
<clipPath id="clip0_492_1666">
<rect width="63" height="39" fill="white" transform="translate(0.942627 0.206726)"/>
</clipPath>
</defs>
</svg>
