<svg width="35" height="44" viewBox="0 0 35 44" fill="none" xmlns="http://www.w3.org/2000/svg">
<g filter="url(#filter0_d_492_1384)">
<path d="M16.9397 14.2405C18.1261 14.2613 19.257 14.7587 20.0884 15.6254C20.9198 16.4922 21.385 17.6588 21.3837 18.8735C21.3823 20.0883 20.9146 21.2538 20.0813 22.1187C19.2481 22.9835 18.1161 23.4783 16.9296 23.4964L8.77747 23.4761C7.58468 23.4648 6.44456 22.9715 5.60553 22.1035C4.76649 21.2355 4.29652 20.0632 4.29801 18.842C4.2995 17.6209 4.77233 16.4498 5.61348 15.584C6.45463 14.7181 7.59594 14.2276 8.78875 14.2194L16.9397 14.2405ZM24.1551 25.0567C25.3543 25.0584 26.5037 25.5477 27.3505 26.417C28.1972 27.2862 28.672 28.4643 28.6704 29.6919C28.6687 30.9195 28.1907 32.0962 27.3416 32.9631C26.4925 33.8299 25.3418 34.316 24.1426 34.3143L15.9917 34.2932C14.7989 34.2819 13.6588 33.7885 12.8198 32.9205C11.9807 32.0525 11.5108 30.8802 11.5122 29.6591C11.5137 28.4379 11.9866 27.2668 12.8277 26.401C13.6689 25.5351 14.8102 25.0447 16.003 25.0365L24.1551 25.0567ZM5.21691 9.25176C5.90339 10.2582 6.95231 10.9443 8.13291 11.1591C9.31351 11.3738 10.5291 11.0997 11.5122 10.3969C12.4954 9.69414 13.1656 8.62034 13.3753 7.41171C13.5851 6.20309 13.3173 4.95865 12.6308 3.95217C11.9444 2.94569 10.8955 2.2596 9.71485 2.04485C8.53424 1.83009 7.31866 2.10425 6.33552 2.80702C5.35237 3.50979 4.68219 4.58359 4.47241 5.79222C4.26263 7.00084 4.53043 8.24527 5.21691 9.25176Z" fill="#F36700"/>
<path d="M16.9397 14.2405C18.1261 14.2613 19.257 14.7587 20.0884 15.6254C20.9198 16.4922 21.385 17.6588 21.3837 18.8735C21.3823 20.0883 20.9146 21.2538 20.0813 22.1187C19.2481 22.9835 18.1161 23.4783 16.9296 23.4964L8.77747 23.4761C7.58468 23.4648 6.44456 22.9715 5.60553 22.1035C4.76649 21.2355 4.29652 20.0632 4.29801 18.842C4.2995 17.6209 4.77233 16.4498 5.61348 15.584C6.45463 14.7181 7.59594 14.2276 8.78875 14.2194L16.9397 14.2405ZM24.1551 25.0567C25.3543 25.0584 26.5037 25.5477 27.3505 26.417C28.1972 27.2862 28.672 28.4643 28.6704 29.6919C28.6687 30.9195 28.1907 32.0962 27.3416 32.9631C26.4925 33.8299 25.3418 34.316 24.1426 34.3143L15.9917 34.2932C14.7989 34.2819 13.6588 33.7885 12.8198 32.9205C11.9807 32.0525 11.5108 30.8802 11.5122 29.6591C11.5137 28.4379 11.9866 27.2668 12.8277 26.401C13.6689 25.5351 14.8102 25.0447 16.003 25.0365L24.1551 25.0567ZM5.21691 9.25176C5.90339 10.2582 6.95231 10.9443 8.13291 11.1591C9.31351 11.3738 10.5291 11.0997 11.5122 10.3969C12.4954 9.69414 13.1656 8.62034 13.3753 7.41171C13.5851 6.20309 13.3173 4.95865 12.6308 3.95217C11.9444 2.94569 10.8955 2.2596 9.71485 2.04485C8.53424 1.83009 7.31866 2.10425 6.33552 2.80702C5.35237 3.50979 4.68219 4.58359 4.47241 5.79222C4.26263 7.00084 4.53043 8.24527 5.21691 9.25176Z" stroke="white" stroke-width="2"/>
</g>
<defs>
<filter id="filter0_d_492_1384" x="0.10835" y="0.763135" width="34.7517" height="42.7614" filterUnits="userSpaceOnUse" color-interpolation-filters="sRGB">
<feFlood flood-opacity="0" result="BackgroundImageFix"/>
<feColorMatrix in="SourceAlpha" type="matrix" values="0 0 0 0 0 0 0 0 0 0 0 0 0 0 0 0 0 0 127 0" result="hardAlpha"/>
<feOffset dx="1" dy="4"/>
<feGaussianBlur stdDeviation="2.1"/>
<feComposite in2="hardAlpha" operator="out"/>
<feColorMatrix type="matrix" values="0 0 0 0 0.173268 0 0 0 0 0.168627 0 0 0 0 0.447059 0 0 0 0.25 0"/>
<feBlend mode="normal" in2="BackgroundImageFix" result="effect1_dropShadow_492_1384"/>
<feBlend mode="normal" in="SourceGraphic" in2="effect1_dropShadow_492_1384" result="shape"/>
</filter>
</defs>
</svg>
